# xmcd
#
# Track frame offsets:
#	150
#	25259
#	41509
#	72263
#	92538
#	111903
#	130412
#	149685
#	167816
#	186746
#	212357
#	235631
#	258104
#	277133
#	297135
#	315309
#	333994
#
# Disc length: 4787 seconds
#
# Revision: 3
# Processed by: cddbd v1.5.2PL0 Copyright (c) Steve Scherf et al.
# Submitted via: EZCDAudioConverter 6.0.0.1
#
DISCID=fd12b111
DTITLE=Various Artist - Akella Presents - Modern Electric Blues - vol.25  CD1  New!
DYEAR=2013
DGENRE=Blues
TTITLE0=MILLER ANDERSON - City Blues
TTITLE1=BOWES and MORLEY - Why Did You Do It
TTITLE2=SNOWY WHITE - On The Edge Of Something
TTITLE3=KAL DAVID - Heart Of Stone
TTITLE4=BRANT PARKER - Missing Your Love
TTITLE5=DAVID-JACOBS STRAIN - Rainbow Junkies
TTITLE6=BRAD HATFIELD - Livin' Out The Lie
TTITLE7=MATT WOODS - She Used To Be Your Woman
TTITLE8=MICROWAVE DAVE and The NUKES - Alabama Saturday Night
TTITLE9=ROBBEN FORD - Moonchild Blues
TTITLE10=TY CURTIS BAND - I'm Going Away
TTITLE11=DUKE ROBILLARD - You Mean Everything To Me
TTITLE12=GHOST MOUNTAIN  R and B - Tennessee Line
TTITLE13=MIKE MORGAN and JIM SUHLER - Roll Me
TTITLE14=PETER GARSTENAUER - Talking About Things
TTITLE15=JOHN CAMPBELL - Voodoo Edge
TTITLE16=BLEU JACKSON - I Believe In Your Love
EXTD=
EXTT0=
EXTT1=
EXTT2=
EXTT3=
EXTT4=
EXTT5=
EXTT6=
EXTT7=
EXTT8=
EXTT9=
EXTT10=
EXTT11=
EXTT12=
EXTT13=
EXTT14=
EXTT15=
EXTT16=
PLAYORDER=
